# xmcd
#
# Track frame offsets:
#	183
#	9845
#	31475
#	45288
#	61860
#	77715
#	96245
#	112033
#	129218
#	144688
#	159528
#	175255
#
# Disc length: 2630 seconds
# Revision: 6
# Processed by: cddbd v1.5.2PL0 Copyright (c) Steve Scherf et al.
# Submitted via: dBpowerAMP V12.0
#
DISCID=900a440c
DTITLE=Steve Wariner - Burnin' the Roadhouse Down
DYEAR=1998
DGENRE=Country
TTITLE0=Burnin' the Roadhouse Down
TTITLE1=Holes in the Floor of Heaven
TTITLE2=Every Little Whisper
TTITLE3=A Six Pack Ago
TTITLE4=Road Trippin'
TTITLE5=Love Me Like You Love Me
TTITLE6=Smoke from an Old Flame
TTITLE7=I Don't Know How to Fix It
TTITLE8=Big Ol' Empty House
TTITLE9=Closer I Get to You
TTITLE10=Big Tops
TTITLE11=What If I Said
EXTD=
EXTT0=
EXTT1=
EXTT2=
EXTT3=
EXTT4=
EXTT5=
EXTT6=
EXTT7=
EXTT8=
EXTT9=
EXTT10=
EXTT11=
PLAYORDER=
